<svg width="1280" height="200" viewBox="0 0 1280 200" fill="none" xmlns="http://www.w3.org/2000/svg">
<rect width="1280" height="200" rx="12" fill="white"/>
<path d="M381.88 111.64V96.28L436.92 66.072V81.688L396.728 103.448V104.472L436.92 126.232V141.848L381.88 111.64ZM487.686 144.536C482.395 144.536 477.702 143.725 473.606 142.104C469.51 140.483 466.054 138.179 463.238 135.192C460.507 132.205 458.417 128.621 456.966 124.44C455.515 120.173 454.79 115.395 454.79 110.104C454.79 104.728 455.515 99.9067 456.966 95.64C458.502 91.3733 460.635 87.7467 463.366 84.76C466.097 81.7733 469.382 79.4693 473.222 77.848C477.147 76.2267 481.542 75.416 486.406 75.416C491.185 75.416 495.494 76.2267 499.334 77.848C503.174 79.384 506.417 81.6027 509.062 84.504C511.793 87.4053 513.883 90.904 515.334 95C516.785 99.096 517.51 103.619 517.51 108.568V113.944H471.174V115.608C471.174 120.387 472.667 124.269 475.654 127.256C478.641 130.157 482.822 131.608 488.198 131.608C492.294 131.608 495.793 130.797 498.694 129.176C501.681 127.469 504.155 125.251 506.118 122.52L515.462 131.864C513.073 135.363 509.574 138.349 504.966 140.824C500.443 143.299 494.683 144.536 487.686 144.536ZM486.534 87.448C481.926 87.448 478.214 88.8987 475.398 91.8C472.582 94.7013 471.174 98.5413 471.174 103.32V104.216H501.126V103.064C501.126 98.2853 499.803 94.488 497.158 91.672C494.598 88.856 491.057 87.448 486.534 87.448ZM576.084 131.352H575.188C573.396 135.363 570.921 138.563 567.764 140.952C564.692 143.341 560.596 144.536 555.476 144.536C551.721 144.536 548.265 143.853 545.108 142.488C542.036 141.037 539.391 138.904 537.172 136.088C534.953 133.187 533.247 129.56 532.052 125.208C530.857 120.856 530.26 115.779 530.26 109.976C530.26 98.3707 532.564 89.7093 537.172 83.992C541.78 78.2747 547.881 75.416 555.476 75.416C560.596 75.416 564.692 76.6107 567.764 79C570.921 81.3893 573.396 84.5893 575.188 88.6H576.084V48.28H592.468V143H576.084V131.352ZM562.388 131.48C564.265 131.48 566.015 131.267 567.636 130.84C569.343 130.328 570.793 129.645 571.988 128.792C573.268 127.853 574.249 126.701 574.932 125.336C575.7 123.885 576.084 122.221 576.084 120.344V99.608C576.084 97.7307 575.7 96.1093 574.932 94.744C574.249 93.2933 573.268 92.1413 571.988 91.288C570.793 90.3493 569.343 89.6667 567.636 89.24C566.015 88.728 564.265 88.472 562.388 88.472C557.609 88.472 553.897 89.9227 551.252 92.824C548.692 95.7253 547.412 99.6933 547.412 104.728V115.224C547.412 120.259 548.692 124.227 551.252 127.128C553.897 130.029 557.609 131.48 562.388 131.48ZM674.978 149.912C674.978 156.824 672.077 161.901 666.274 165.144C660.557 168.472 651.597 170.136 639.394 170.136C633.421 170.136 628.429 169.752 624.418 168.984C620.407 168.301 617.165 167.277 614.69 165.912C612.301 164.547 610.594 162.883 609.57 160.92C608.546 159.043 608.034 156.909 608.034 154.52C608.034 150.851 609.101 148.035 611.234 146.072C613.367 144.109 616.354 142.659 620.194 141.72V140.696C617.634 139.843 615.586 138.648 614.05 137.112C612.599 135.576 611.874 133.443 611.874 130.712C611.874 127.469 612.941 125.037 615.074 123.416C617.293 121.795 620.194 120.557 623.778 119.704V119.064C619.853 117.187 616.781 114.541 614.562 111.128C612.343 107.715 611.234 103.576 611.234 98.712C611.234 95.0427 611.874 91.8 613.154 88.984C614.519 86.0827 616.397 83.6507 618.786 81.688C621.261 79.64 624.205 78.104 627.618 77.08C631.031 75.9707 634.829 75.416 639.01 75.416C643.447 75.416 647.458 76.0133 651.042 77.208V74.392C651.042 71.832 651.853 69.6987 653.474 67.992C655.181 66.2853 657.527 65.432 660.514 65.432H672.418V77.72H656.802V79.896C660.045 81.8587 662.519 84.4187 664.226 87.576C666.018 90.648 666.914 94.36 666.914 98.712C666.914 102.381 666.231 105.667 664.866 108.568C663.586 111.469 661.709 113.901 659.234 115.864C656.845 117.827 653.901 119.363 650.402 120.472C646.989 121.496 643.191 122.008 639.01 122.008C637.303 122.008 635.639 121.965 634.018 121.88C632.482 121.709 630.989 121.411 629.538 120.984C628.343 121.411 627.191 122.093 626.082 123.032C624.973 123.971 624.418 125.208 624.418 126.744C624.418 128.792 625.399 130.072 627.362 130.584C629.325 131.011 631.671 131.224 634.402 131.224H649.378C653.986 131.224 657.911 131.693 661.154 132.632C664.397 133.485 667.042 134.765 669.09 136.472C671.138 138.093 672.631 140.056 673.57 142.36C674.509 144.664 674.978 147.181 674.978 149.912ZM659.618 151.064C659.618 149.101 658.807 147.523 657.186 146.328C655.65 145.219 652.749 144.664 648.482 144.664H625.698C623.138 146.115 621.858 148.248 621.858 151.064C621.858 153.368 622.797 155.288 624.674 156.824C626.637 158.36 629.922 159.128 634.53 159.128H645.154C654.797 159.128 659.618 156.44 659.618 151.064ZM639.01 111.256C643.191 111.256 646.263 110.275 648.226 108.312C650.189 106.264 651.17 103.619 651.17 100.376V97.048C651.17 93.8053 650.189 91.2027 648.226 89.24C646.263 87.192 643.191 86.168 639.01 86.168C634.914 86.168 631.885 87.192 629.922 89.24C627.959 91.2027 626.978 93.8053 626.978 97.048V100.376C626.978 103.619 627.959 106.264 629.922 108.312C631.885 110.275 634.914 111.256 639.01 111.256ZM717.936 144.536C712.645 144.536 707.952 143.725 703.856 142.104C699.76 140.483 696.304 138.179 693.488 135.192C690.757 132.205 688.667 128.621 687.216 124.44C685.765 120.173 685.04 115.395 685.04 110.104C685.04 104.728 685.765 99.9067 687.216 95.64C688.752 91.3733 690.885 87.7467 693.616 84.76C696.347 81.7733 699.632 79.4693 703.472 77.848C707.397 76.2267 711.792 75.416 716.656 75.416C721.435 75.416 725.744 76.2267 729.584 77.848C733.424 79.384 736.667 81.6027 739.312 84.504C742.043 87.4053 744.133 90.904 745.584 95C747.035 99.096 747.76 103.619 747.76 108.568V113.944H701.424V115.608C701.424 120.387 702.917 124.269 705.904 127.256C708.891 130.157 713.072 131.608 718.448 131.608C722.544 131.608 726.043 130.797 728.944 129.176C731.931 127.469 734.405 125.251 736.368 122.52L745.712 131.864C743.323 135.363 739.824 138.349 735.216 140.824C730.693 143.299 724.933 144.536 717.936 144.536ZM716.784 87.448C712.176 87.448 708.464 88.8987 705.648 91.8C702.832 94.7013 701.424 98.5413 701.424 103.32V104.216H731.376V103.064C731.376 98.2853 730.053 94.488 727.408 91.672C724.848 88.856 721.307 87.448 716.784 87.448ZM764.734 160.664L806.846 45.72H821.566L779.454 160.664H764.734ZM842.38 126.232L882.572 104.472V103.448L842.38 81.688V66.072L897.42 96.28V111.64L842.38 141.848V126.232Z" fill="black"/>
</svg>
